# xmcd CD database file
#
# Track frame offsets:
#	150
#	41618
#	87729
#	122951
#	155779
#	188705
#	213087
#	248258
#	269634
#	301408
#
# Disc length: 4417 seconds
#
# Revision: 0
# Processed by: cddbd v1.5.2PL0 Copyright (c) Steve Scherf et al.
# Submitted via: CDex 1.51
#
DISCID=8b113f0a
DTITLE=Chris Potter - SaxJazz
DYEAR=1995
DGENRE=Jazz
TTITLE0=seven eleven
TTITLE1=blues in concentric circles
TTITLE2=amsterdam blues
TTITLE3=you and the night and the music
TTITLE4=fear of flying
TTITLE5=start eyes
TTITLE6=wistful
TTITLE7=epistrophy
TTITLE8=sun king
TTITLE9=the source
EXTD=YEAR: 1995
EXTT0=
EXTT1=
EXTT2=
EXTT3=
EXTT4=
EXTT5=
EXTT6=
EXTT7=
EXTT8=
EXTT9=
PLAYORDER=
